<?xml version="1.0" standalone="no"?>
<!DOCTYPE svg PUBLIC "-//W3C//DTD SVG 20010904//EN"
 "http://www.w3.org/TR/2001/REC-SVG-20010904/DTD/svg10.dtd">
<svg version="1.0" xmlns="http://www.w3.org/2000/svg"
 width="512.000000pt" height="512.000000pt" viewBox="0 0 512.000000 512.000000"
 preserveAspectRatio="xMidYMid meet">
<metadata>
Created by potrace 1.14, written by Peter Selinger 2001-2017
</metadata>
<g transform="translate(0.000000,512.000000) scale(0.100000,-0.100000)"
fill="#000000" stroke="none">
<path d="M2346 5110 c-797 -72 -1494 -487 -1931 -1149 -426 -648 -532 -1468
-284 -2216 90 -270 251 -564 435 -795 86 -108 274 -295 384 -383 365 -294 815
-487 1273 -547 59 -8 193 -10 395 -7 285 4 316 7 432 31 381 82 698 218 994
429 488 347 846 866 992 1441 57 222 66 295 71 581 5 297 -3 401 -52 620 -62
282 -202 609 -363 850 -71 106 -112 152 -354 391 -314 313 -375 359 -663 500
-255 125 -509 202 -785 240 -134 18 -416 25 -544 14z m411 -1075 c443 -84 783
-418 874 -857 28 -137 23 -359 -11 -488 -110 -415 -442 -726 -859 -806 -87
-17 -301 -19 -379 -5 -139 27 -272 75 -364 131 -26 17 -50 30 -53 30 -3 0 -5
-205 -5 -456 l0 -456 -29 -29 -29 -29 -187 0 -187 0 -29 30 -30 29 3 1003 3
1003 27 97 c113 413 441 720 854 802 95 19 303 19 401 1z"/>
<path d="M2475 3549 c-78 -12 -116 -24 -200 -68 -197 -102 -328 -341 -311
-566 20 -243 179 -446 415 -527 95 -33 267 -33 362 0 287 99 457 381 405 672
-44 249 -236 441 -481 485 -89 16 -105 16 -190 4z"/>
</g>
</svg>
